<svg width="120" height="100" viewBox="0 0 120 100" fill="none" xmlns="http://www.w3.org/2000/svg">
<rect width="3" height="100" fill="#1E43AA"/>
<path d="M65.1998 20.9333C65.1998 23.8052 62.8717 26.1333 59.9998 26.1333C57.1279 26.1333 54.7998 23.8052 54.7998 20.9333C54.7998 18.0615 57.1279 15.7333 59.9998 15.7333C62.8717 15.7333 65.1998 18.0615 65.1998 20.9333Z" fill="#1E43AA"/>
<path d="M49.1919 41.2667L52.0872 31.1334H67.9119L70.8072 41.2667H49.1919Z" fill="#1E43AA" stroke="#1E43AA" stroke-width="2"/>
<path d="M25.1846 61.2667L23.9404 58.088H19.9346L18.7041 61.2667H17.5283L21.4795 51.2315H22.457L26.3877 61.2667H25.1846ZM23.5781 57.0421L22.416 53.9454C22.2656 53.5534 22.1107 53.0727 21.9512 52.503C21.8509 52.9405 21.7074 53.4213 21.5205 53.9454L20.3447 57.0421H23.5781ZM32.6904 60.2618H32.6289C32.1048 61.0228 31.321 61.4034 30.2773 61.4034C29.2975 61.4034 28.5342 61.0684 27.9873 60.3985C27.445 59.7286 27.1738 58.7761 27.1738 57.5411C27.1738 56.3061 27.4473 55.3467 27.9941 54.6631C28.541 53.9796 29.3021 53.6378 30.2773 53.6378C31.2936 53.6378 32.0729 54.0069 32.6152 54.7452H32.7041L32.6562 54.2051L32.6289 53.6788V50.6299H33.7637V61.2667H32.8408L32.6904 60.2618ZM30.4209 60.4532C31.1956 60.4532 31.7562 60.2436 32.1025 59.8243C32.4535 59.4005 32.6289 58.7191 32.6289 57.7803V57.5411C32.6289 56.4792 32.4512 55.7227 32.0957 55.2715C31.7448 54.8158 31.182 54.588 30.4072 54.588C29.7419 54.588 29.2314 54.8477 28.876 55.3672C28.5251 55.8822 28.3496 56.6114 28.3496 57.5547C28.3496 58.5118 28.5251 59.2341 28.876 59.7217C29.2269 60.2094 29.7419 60.4532 30.4209 60.4532ZM45.7266 61.2667V56.3926C45.7266 55.7956 45.599 55.349 45.3438 55.0528C45.0885 54.752 44.6921 54.6016 44.1543 54.6016C43.4479 54.6016 42.9261 54.8044 42.5889 55.21C42.2516 55.6156 42.083 56.24 42.083 57.0831V61.2667H40.9482V56.3926C40.9482 55.7956 40.8206 55.349 40.5654 55.0528C40.3102 54.752 39.9115 54.6016 39.3691 54.6016C38.6582 54.6016 38.1364 54.8158 37.8037 55.2442C37.4756 55.668 37.3115 56.3653 37.3115 57.336V61.2667H36.1768V53.7745H37.0996L37.2842 54.7999H37.3389C37.5531 54.4353 37.8538 54.1505 38.2412 53.9454C38.6331 53.7403 39.0706 53.6378 39.5537 53.6378C40.7249 53.6378 41.4906 54.0616 41.8506 54.9092H41.9053C42.1286 54.5173 42.4521 54.2074 42.876 53.9796C43.2998 53.7517 43.7829 53.6378 44.3252 53.6378C45.1729 53.6378 45.8063 53.8565 46.2256 54.294C46.6494 54.7269 46.8613 55.4219 46.8613 56.379V61.2667H45.7266ZM50.3408 61.2667H49.2061V53.7745H50.3408V61.2667ZM49.1104 51.7442C49.1104 51.4844 49.1742 51.2953 49.3018 51.1768C49.4294 51.0538 49.5889 50.9922 49.7803 50.9922C49.9626 50.9922 50.1198 51.0538 50.252 51.1768C50.3841 51.2999 50.4502 51.489 50.4502 51.7442C50.4502 51.9994 50.3841 52.1908 50.252 52.3184C50.1198 52.4415 49.9626 52.503 49.7803 52.503C49.5889 52.503 49.4294 52.4415 49.3018 52.3184C49.1742 52.1908 49.1104 51.9994 49.1104 51.7442ZM57.874 61.2667V56.42C57.874 55.8093 57.735 55.3536 57.457 55.0528C57.179 54.752 56.7438 54.6016 56.1514 54.6016C55.3675 54.6016 54.7933 54.8135 54.4287 55.2374C54.0641 55.6612 53.8818 56.3607 53.8818 57.336V61.2667H52.7471V53.7745H53.6699L53.8545 54.7999H53.9092C54.1416 54.4307 54.4674 54.1459 54.8867 53.9454C55.306 53.7403 55.7731 53.6378 56.2881 53.6378C57.1904 53.6378 57.8695 53.8565 58.3252 54.294C58.7809 54.7269 59.0088 55.4219 59.0088 56.379V61.2667H57.874ZM62.4814 61.2667H61.3467V53.7745H62.4814V61.2667ZM61.251 51.7442C61.251 51.4844 61.3148 51.2953 61.4424 51.1768C61.57 51.0538 61.7295 50.9922 61.9209 50.9922C62.1032 50.9922 62.2604 51.0538 62.3926 51.1768C62.5247 51.2999 62.5908 51.489 62.5908 51.7442C62.5908 51.9994 62.5247 52.1908 62.3926 52.3184C62.2604 52.4415 62.1032 52.503 61.9209 52.503C61.7295 52.503 61.57 52.4415 61.4424 52.3184C61.3148 52.1908 61.251 51.9994 61.251 51.7442ZM69.7207 59.2227C69.7207 59.92 69.4609 60.4577 68.9414 60.836C68.4219 61.2143 67.6927 61.4034 66.7539 61.4034C65.7604 61.4034 64.9857 61.2462 64.4297 60.9317V59.879C64.7897 60.0613 65.1748 60.2048 65.585 60.3096C65.9997 60.4144 66.3984 60.4669 66.7812 60.4669C67.3737 60.4669 67.8294 60.3734 68.1484 60.1866C68.4674 59.9952 68.627 59.7058 68.627 59.3184C68.627 59.0268 68.4993 58.7784 68.2441 58.5733C67.9935 58.3637 67.5013 58.1176 66.7676 57.835C66.0703 57.5753 65.5736 57.3497 65.2773 57.1583C64.9857 56.9623 64.7669 56.7413 64.6211 56.4952C64.4798 56.2491 64.4092 55.9551 64.4092 55.6133C64.4092 55.0027 64.6576 54.5219 65.1543 54.171C65.651 53.8155 66.3324 53.6378 67.1982 53.6378C68.0049 53.6378 68.7933 53.8018 69.5635 54.1299L69.1602 55.0528C68.4082 54.7429 67.7269 54.588 67.1162 54.588C66.5785 54.588 66.1729 54.6723 65.8994 54.8409C65.626 55.0095 65.4893 55.2419 65.4893 55.5381C65.4893 55.7387 65.5394 55.9096 65.6396 56.0508C65.7445 56.1921 65.9108 56.3266 66.1387 56.4542C66.3665 56.5818 66.804 56.7663 67.4512 57.0079C68.3398 57.3314 68.9391 57.6573 69.249 57.9854C69.5635 58.3135 69.7207 58.726 69.7207 59.2227ZM73.9932 60.4669C74.1937 60.4669 74.3874 60.4532 74.5742 60.4258C74.7611 60.3939 74.9092 60.362 75.0186 60.3301V61.1983C74.8955 61.2575 74.7132 61.3054 74.4717 61.3419C74.2347 61.3829 74.0205 61.4034 73.8291 61.4034C72.3799 61.4034 71.6553 60.64 71.6553 59.1133V54.6563H70.582V54.1094L71.6553 53.6378L72.1338 52.0381H72.79V53.7745H74.9639V54.6563H72.79V59.0655C72.79 59.5167 72.8971 59.863 73.1113 60.1046C73.3255 60.3461 73.6195 60.4669 73.9932 60.4669ZM79.9404 53.6378C80.2731 53.6378 80.5716 53.6651 80.8359 53.7198L80.6787 54.7725C80.3688 54.7042 80.0954 54.67 79.8584 54.67C79.2523 54.67 78.7327 54.9161 78.2998 55.4083C77.8714 55.9005 77.6572 56.5134 77.6572 57.2471V61.2667H76.5225V53.7745H77.459L77.5889 55.1622H77.6436C77.9215 54.6745 78.2565 54.2986 78.6484 54.0342C79.0404 53.7699 79.471 53.6378 79.9404 53.6378ZM85.4023 61.4034C84.2949 61.4034 83.4199 61.0661 82.7773 60.3917C82.1393 59.7172 81.8203 58.7807 81.8203 57.5821C81.8203 56.3744 82.1165 55.4151 82.709 54.7042C83.306 53.9932 84.1058 53.6378 85.1084 53.6378C86.0472 53.6378 86.79 53.9477 87.3369 54.5674C87.8838 55.1827 88.1572 55.9962 88.1572 57.0079V57.7256H82.9961C83.0189 58.6052 83.2399 59.2728 83.6592 59.7286C84.083 60.1843 84.6777 60.4122 85.4434 60.4122C86.25 60.4122 87.0475 60.2436 87.8359 59.9063V60.918C87.4349 61.0912 87.0544 61.2143 86.6943 61.2872C86.3389 61.3646 85.9082 61.4034 85.4023 61.4034ZM85.0947 54.588C84.4932 54.588 84.0124 54.7839 83.6523 55.1758C83.2969 55.5678 83.0872 56.1101 83.0234 56.8028H86.9404C86.9404 56.0873 86.7809 55.5404 86.4619 55.1622C86.1429 54.7794 85.6872 54.588 85.0947 54.588ZM93.5166 53.6378C93.8493 53.6378 94.1478 53.6651 94.4121 53.7198L94.2549 54.7725C93.945 54.7042 93.6715 54.67 93.4346 54.67C92.8285 54.67 92.3089 54.9161 91.876 55.4083C91.4476 55.9005 91.2334 56.5134 91.2334 57.2471V61.2667H90.0986V53.7745H91.0352L91.165 55.1622H91.2197C91.4977 54.6745 91.8327 54.2986 92.2246 54.0342C92.6165 53.7699 93.0472 53.6378 93.5166 53.6378ZM98.9785 61.4034C97.8711 61.4034 96.9961 61.0661 96.3535 60.3917C95.7155 59.7172 95.3965 58.7807 95.3965 57.5821C95.3965 56.3744 95.6927 55.4151 96.2852 54.7042C96.8822 53.9932 97.682 53.6378 98.6846 53.6378C99.6234 53.6378 100.366 53.9477 100.913 54.5674C101.46 55.1827 101.733 55.9962 101.733 57.0079V57.7256H96.5723C96.5951 58.6052 96.8161 59.2728 97.2354 59.7286C97.6592 60.1843 98.2539 60.4122 99.0195 60.4122C99.8262 60.4122 100.624 60.2436 101.412 59.9063V60.918C101.011 61.0912 100.631 61.2143 100.271 61.2872C99.915 61.3646 99.4844 61.4034 98.9785 61.4034ZM98.6709 54.588C98.0693 54.588 97.5885 54.7839 97.2285 55.1758C96.873 55.5678 96.6634 56.1101 96.5996 56.8028H100.517C100.517 56.0873 100.357 55.5404 100.038 55.1622C99.7191 54.7794 99.2633 54.588 98.6709 54.588ZM38.8428 72.6514C39.8271 72.6514 40.5905 72.9887 41.1328 73.6631C41.6797 74.3331 41.9531 75.2833 41.9531 76.5137C41.9531 77.7442 41.6774 78.7012 41.126 79.3848C40.5791 80.0639 39.818 80.4034 38.8428 80.4034C38.3551 80.4034 37.9085 80.3145 37.5029 80.1368C37.1019 79.9545 36.7646 79.6765 36.4912 79.3028H36.4092L36.1699 80.2667H35.3564V69.6299H36.4912V72.2139C36.4912 72.7927 36.473 73.3122 36.4365 73.7725H36.4912C37.0199 73.0251 37.8037 72.6514 38.8428 72.6514ZM38.6787 73.6016C37.904 73.6016 37.3457 73.8249 37.0039 74.2715C36.6621 74.7136 36.4912 75.461 36.4912 76.5137C36.4912 77.5665 36.6667 78.3207 37.0176 78.7764C37.3685 79.2276 37.9313 79.4532 38.7061 79.4532C39.4033 79.4532 39.9229 79.2003 40.2646 78.6944C40.6064 78.184 40.7773 77.4525 40.7773 76.5001C40.7773 75.5248 40.6064 74.7979 40.2646 74.3194C39.9229 73.8409 39.3942 73.6016 38.6787 73.6016ZM47.3604 72.6378C47.693 72.6378 47.9915 72.6651 48.2559 72.7198L48.0986 73.7725C47.7887 73.7042 47.5153 73.67 47.2783 73.67C46.6722 73.67 46.1527 73.9161 45.7197 74.4083C45.2913 74.9005 45.0771 75.5134 45.0771 76.2471V80.2667H43.9424V72.7745H44.8789L45.0088 74.1622H45.0635C45.3415 73.6745 45.6764 73.2986 46.0684 73.0342C46.4603 72.7699 46.891 72.6378 47.3604 72.6378ZM50.7236 72.7745V77.6348C50.7236 78.2455 50.8626 78.7012 51.1406 79.002C51.4186 79.3028 51.8538 79.4532 52.4463 79.4532C53.2301 79.4532 53.8021 79.239 54.1621 78.8106C54.5267 78.3822 54.709 77.6827 54.709 76.712V72.7745H55.8438V80.2667H54.9072L54.7432 79.2618H54.6816C54.4492 79.6309 54.1257 79.9135 53.7109 80.1094C53.3008 80.3054 52.8314 80.4034 52.3027 80.4034C51.3913 80.4034 50.7077 80.1869 50.252 79.754C49.8008 79.321 49.5752 78.6283 49.5752 77.6758V72.7745H50.7236ZM59.3779 76.4317C59.5739 76.1537 59.8724 75.7891 60.2734 75.338L62.6934 72.7745H64.04L61.0049 75.9669L64.252 80.2667H62.8779L60.2324 76.7256L59.3779 77.4639V80.2667H58.2568V69.6299H59.3779V75.2696C59.3779 75.5202 59.3597 75.9076 59.3232 76.4317H59.3779ZM68.7773 80.4034C67.6699 80.4034 66.7949 80.0661 66.1523 79.3917C65.5143 78.7172 65.1953 77.7807 65.1953 76.5821C65.1953 75.3744 65.4915 74.4151 66.084 73.7042C66.681 72.9932 67.4808 72.6378 68.4834 72.6378C69.4222 72.6378 70.165 72.9477 70.7119 73.5674C71.2588 74.1827 71.5322 74.9962 71.5322 76.0079V76.7256H66.3711C66.3939 77.6052 66.6149 78.2728 67.0342 78.7286C67.458 79.1843 68.0527 79.4122 68.8184 79.4122C69.625 79.4122 70.4225 79.2436 71.2109 78.9063V79.918C70.8099 80.0912 70.4294 80.2143 70.0693 80.2872C69.7139 80.3646 69.2832 80.4034 68.7773 80.4034ZM68.4697 73.588C67.8682 73.588 67.3874 73.7839 67.0273 74.1758C66.6719 74.5678 66.4622 75.1101 66.3984 75.8028H70.3154C70.3154 75.0873 70.1559 74.5404 69.8369 74.1622C69.5179 73.7794 69.0622 73.588 68.4697 73.588ZM76.8916 72.6378C77.2243 72.6378 77.5228 72.6651 77.7871 72.7198L77.6299 73.7725C77.32 73.7042 77.0465 73.67 76.8096 73.67C76.2035 73.67 75.6839 73.9161 75.251 74.4083C74.8226 74.9005 74.6084 75.5134 74.6084 76.2471V80.2667H73.4736V72.7745H74.4102L74.54 74.1622H74.5947C74.8727 73.6745 75.2077 73.2986 75.5996 73.0342C75.9915 72.7699 76.4222 72.6378 76.8916 72.6378ZM82.3535 80.4034C81.2461 80.4034 80.3711 80.0661 79.7285 79.3917C79.0905 78.7172 78.7715 77.7807 78.7715 76.5821C78.7715 75.3744 79.0677 74.4151 79.6602 73.7042C80.2572 72.9932 81.057 72.6378 82.0596 72.6378C82.9984 72.6378 83.7412 72.9477 84.2881 73.5674C84.835 74.1827 85.1084 74.9962 85.1084 76.0079V76.7256H79.9473C79.9701 77.6052 80.1911 78.2728 80.6104 78.7286C81.0342 79.1843 81.6289 79.4122 82.3945 79.4122C83.2012 79.4122 83.9987 79.2436 84.7871 78.9063V79.918C84.3861 80.0912 84.0055 80.2143 83.6455 80.2872C83.29 80.3646 82.8594 80.4034 82.3535 80.4034ZM82.0459 73.588C81.4443 73.588 80.9635 73.7839 80.6035 74.1758C80.248 74.5678 80.0384 75.1101 79.9746 75.8028H83.8916C83.8916 75.0873 83.7321 74.5404 83.4131 74.1622C83.0941 73.7794 82.6383 73.588 82.0459 73.588Z" fill="#1E43AA"/>
</svg>
