<svg width="10" height="13" viewBox="0 0 10 13" fill="none" xmlns="http://www.w3.org/2000/svg">
<mask id="path-1-inside-1" fill="white">
<path fill-rule="evenodd" clip-rule="evenodd" d="M6.36396 0L0 6.36396L6.36396 12.7279L9.36396 9.72792L6 6.36396L9.36396 3L6.36396 0Z"/>
</mask>
<path d="M0 6.36396L-0.707107 5.65685L-1.41421 6.36396L-0.707107 7.07107L0 6.36396ZM6.36396 0L7.07107 -0.707107L6.36396 -1.41421L5.65685 -0.707107L6.36396 0ZM6.36396 12.7279L5.65685 13.435L6.36396 14.1421L7.07107 13.435L6.36396 12.7279ZM9.36396 9.72792L10.0711 10.435L10.7782 9.72792L10.0711 9.02081L9.36396 9.72792ZM6 6.36396L5.29289 5.65685L4.58579 6.36396L5.29289 7.07107L6 6.36396ZM9.36396 3L10.0711 3.70711L10.7782 3L10.0711 2.29289L9.36396 3ZM0.707107 7.07107L7.07107 0.707107L5.65685 -0.707107L-0.707107 5.65685L0.707107 7.07107ZM7.07107 12.0208L0.707107 5.65685L-0.707107 7.07107L5.65685 13.435L7.07107 12.0208ZM8.65685 9.02081L5.65685 12.0208L7.07107 13.435L10.0711 10.435L8.65685 9.02081ZM10.0711 9.02081L6.70711 5.65685L5.29289 7.07107L8.65685 10.435L10.0711 9.02081ZM6.70711 7.07107L10.0711 3.70711L8.65685 2.29289L5.29289 5.65685L6.70711 7.07107ZM5.65685 0.707107L8.65685 3.70711L10.0711 2.29289L7.07107 -0.707107L5.65685 0.707107Z" fill="#2B2859" mask="url(#path-1-inside-1)"/>
</svg>
