<svg width="120" height="100" viewBox="0 0 120 100" fill="none" xmlns="http://www.w3.org/2000/svg">
<rect width="3" height="100" fill="#1E43AA"/>
<path d="M68 50.5H52C51.2044 50.5 50.4413 50.1839 49.8787 49.6213C49.3161 49.0587 49 48.2956 49 47.5V29.5C49 28.7044 49.3161 27.9413 49.8787 27.3787C50.4413 26.8161 51.2044 26.5 52 26.5H68C68.7956 26.5 69.5587 26.8161 70.1213 27.3787C70.6839 27.9413 71 28.7044 71 29.5V47.5C71 48.2956 70.6839 49.0587 70.1213 49.6213C69.5587 50.1839 68.7956 50.5 68 50.5ZM54.966 42.052C54.6761 42.052 54.3926 42.138 54.1515 42.2991C53.9105 42.4602 53.7226 42.6891 53.6116 42.957C53.5006 43.2249 53.4716 43.5196 53.5282 43.804C53.5847 44.0884 53.7244 44.3496 53.9294 44.5546C54.1344 44.7596 54.3956 44.8993 54.68 44.9558C54.9644 45.0124 55.2591 44.9834 55.527 44.8724C55.7949 44.7614 56.0238 44.5735 56.1849 44.3325C56.346 44.0914 56.432 43.8079 56.432 43.518C56.4315 43.1294 56.2768 42.7568 56.002 42.482C55.7272 42.2072 55.3546 42.0525 54.966 42.052ZM58 42.518V44.518H67V42.518H58ZM54.966 37.035C54.676 37.035 54.3925 37.121 54.1514 37.2821C53.9103 37.4433 53.7224 37.6723 53.6115 37.9402C53.5006 38.2082 53.4716 38.503 53.5282 38.7874C53.5849 39.0718 53.7246 39.333 53.9297 39.538C54.1349 39.743 54.3962 39.8825 54.6806 39.939C54.9651 39.9954 55.2598 39.9662 55.5277 39.8551C55.7956 39.744 56.0245 39.556 56.1854 39.3147C56.3464 39.0735 56.4322 38.79 56.432 38.5C56.4312 38.1115 56.2765 37.7392 56.0017 37.4646C55.7269 37.19 55.3545 37.0355 54.966 37.035ZM58 37.5V39.5H67V37.5H58ZM54.966 32.017C54.6761 32.017 54.3926 32.103 54.1515 32.2641C53.9105 32.4252 53.7226 32.6541 53.6116 32.922C53.5006 33.1899 53.4716 33.4846 53.5282 33.769C53.5847 34.0534 53.7244 34.3146 53.9294 34.5196C54.1344 34.7246 54.3956 34.8643 54.68 34.9208C54.9644 34.9774 55.2591 34.9484 55.527 34.8374C55.7949 34.7264 56.0238 34.5385 56.1849 34.2975C56.346 34.0564 56.432 33.7729 56.432 33.483C56.4315 33.0944 56.2768 32.7218 56.002 32.447C55.7272 32.1722 55.3546 32.0175 54.966 32.017ZM58 32.483V34.483H67V32.483H58Z" fill="#1E43AA"/>
<path d="M30.2705 65.4893C30.2705 67.0889 29.8649 68.3467 29.0537 69.2627C28.2471 70.1787 27.1237 70.6367 25.6836 70.6367C24.2116 70.6367 23.0745 70.1878 22.2725 69.29C21.4749 68.3877 21.0762 67.1162 21.0762 65.4756C21.0762 63.8486 21.4772 62.5885 22.2793 61.6953C23.0814 60.7975 24.2207 60.3486 25.6973 60.3486C27.1328 60.3486 28.2539 60.8044 29.0605 61.7158C29.8672 62.6273 30.2705 63.8851 30.2705 65.4893ZM22.3066 65.4893C22.3066 66.8428 22.5938 67.8704 23.168 68.5723C23.7467 69.2695 24.5853 69.6182 25.6836 69.6182C26.791 69.6182 27.6273 69.2695 28.1924 68.5723C28.7575 67.875 29.04 66.8473 29.04 65.4893C29.04 64.1449 28.7575 63.1263 28.1924 62.4336C27.6318 61.7363 26.8001 61.3877 25.6973 61.3877C24.5898 61.3877 23.7467 61.7386 23.168 62.4404C22.5938 63.1377 22.3066 64.154 22.3066 65.4893ZM35.8213 70.6367C35.3337 70.6367 34.887 70.5479 34.4814 70.3701C34.0804 70.1878 33.7432 69.9098 33.4697 69.5361H33.3877C33.4424 69.9736 33.4697 70.3883 33.4697 70.7803V73.8633H32.335V63.0078H33.2578L33.415 64.0332H33.4697C33.7614 63.623 34.1009 63.3268 34.4883 63.1445C34.8757 62.9622 35.32 62.8711 35.8213 62.8711C36.8148 62.8711 37.5804 63.2106 38.1182 63.8896C38.6605 64.5687 38.9316 65.5212 38.9316 66.7471C38.9316 67.9775 38.6559 68.9346 38.1045 69.6182C37.5576 70.2972 36.7965 70.6367 35.8213 70.6367ZM35.6572 63.835C34.8916 63.835 34.3379 64.0469 33.9961 64.4707C33.6543 64.8945 33.4788 65.569 33.4697 66.4941V66.7471C33.4697 67.7998 33.6452 68.554 33.9961 69.0098C34.347 69.4609 34.9098 69.6865 35.6846 69.6865C36.3317 69.6865 36.8376 69.4245 37.2021 68.9004C37.5713 68.3763 37.7559 67.654 37.7559 66.7334C37.7559 65.7992 37.5713 65.0837 37.2021 64.5869C36.8376 64.0856 36.3226 63.835 35.6572 63.835ZM44.4072 70.6367C43.9196 70.6367 43.473 70.5479 43.0674 70.3701C42.6663 70.1878 42.3291 69.9098 42.0557 69.5361H41.9736C42.0283 69.9736 42.0557 70.3883 42.0557 70.7803V73.8633H40.9209V63.0078H41.8438L42.001 64.0332H42.0557C42.3473 63.623 42.6868 63.3268 43.0742 63.1445C43.4616 62.9622 43.9059 62.8711 44.4072 62.8711C45.4007 62.8711 46.1663 63.2106 46.7041 63.8896C47.2464 64.5687 47.5176 65.5212 47.5176 66.7471C47.5176 67.9775 47.2419 68.9346 46.6904 69.6182C46.1436 70.2972 45.3825 70.6367 44.4072 70.6367ZM44.2432 63.835C43.4775 63.835 42.9238 64.0469 42.582 64.4707C42.2402 64.8945 42.0648 65.569 42.0557 66.4941V66.7471C42.0557 67.7998 42.2311 68.554 42.582 69.0098C42.9329 69.4609 43.4958 69.6865 44.2705 69.6865C44.9176 69.6865 45.4235 69.4245 45.7881 68.9004C46.1572 68.3763 46.3418 67.654 46.3418 66.7334C46.3418 65.7992 46.1572 65.0837 45.7881 64.5869C45.4235 64.0856 44.9085 63.835 44.2432 63.835ZM52.9248 62.8711C53.2575 62.8711 53.556 62.8984 53.8203 62.9531L53.6631 64.0059C53.3532 63.9375 53.0798 63.9033 52.8428 63.9033C52.2367 63.9033 51.7171 64.1494 51.2842 64.6416C50.8558 65.1338 50.6416 65.7467 50.6416 66.4805V70.5H49.5068V63.0078H50.4434L50.5732 64.3955H50.6279C50.9059 63.9079 51.2409 63.5319 51.6328 63.2676C52.0247 63.0033 52.4554 62.8711 52.9248 62.8711ZM58.3867 70.6367C57.2793 70.6367 56.4043 70.2995 55.7617 69.625C55.1237 68.9505 54.8047 68.014 54.8047 66.8154C54.8047 65.6077 55.1009 64.6484 55.6934 63.9375C56.2904 63.2266 57.0902 62.8711 58.0928 62.8711C59.0316 62.8711 59.7744 63.181 60.3213 63.8008C60.8682 64.416 61.1416 65.2295 61.1416 66.2412V66.959H55.9805C56.0033 67.8385 56.2243 68.5062 56.6436 68.9619C57.0674 69.4176 57.6621 69.6455 58.4277 69.6455C59.2344 69.6455 60.0319 69.4769 60.8203 69.1396V70.1514C60.4193 70.3245 60.0387 70.4476 59.6787 70.5205C59.3232 70.598 58.8926 70.6367 58.3867 70.6367ZM58.0791 63.8213C57.4775 63.8213 56.9967 64.0173 56.6367 64.4092C56.2812 64.8011 56.0716 65.3434 56.0078 66.0361H59.9248C59.9248 65.3206 59.7653 64.7738 59.4463 64.3955C59.1273 64.0127 58.6715 63.8213 58.0791 63.8213ZM65.5029 69.7002C65.7035 69.7002 65.8971 69.6865 66.084 69.6592C66.2708 69.6273 66.4189 69.5954 66.5283 69.5635V70.4316C66.4053 70.4909 66.223 70.5387 65.9814 70.5752C65.7445 70.6162 65.5303 70.6367 65.3389 70.6367C63.8896 70.6367 63.165 69.8734 63.165 68.3467V63.8896H62.0918V63.3428L63.165 62.8711L63.6436 61.2715H64.2998V63.0078H66.4736V63.8896H64.2998V68.2988C64.2998 68.75 64.4069 69.0964 64.6211 69.3379C64.8353 69.5794 65.1292 69.7002 65.5029 69.7002ZM70.4521 69.7002C70.6527 69.7002 70.8464 69.6865 71.0332 69.6592C71.2201 69.6273 71.3682 69.5954 71.4775 69.5635V70.4316C71.3545 70.4909 71.1722 70.5387 70.9307 70.5752C70.6937 70.6162 70.4795 70.6367 70.2881 70.6367C68.8389 70.6367 68.1143 69.8734 68.1143 68.3467V63.8896H67.041V63.3428L68.1143 62.8711L68.5928 61.2715H69.249V63.0078H71.4229V63.8896H69.249V68.2988C69.249 68.75 69.3561 69.0964 69.5703 69.3379C69.7845 69.5794 70.0785 69.7002 70.4521 69.7002ZM86.168 70.5V65.626C86.168 65.029 86.0404 64.5824 85.7852 64.2861C85.5299 63.9854 85.1335 63.835 84.5957 63.835C83.8893 63.835 83.3675 64.0378 83.0303 64.4434C82.693 64.849 82.5244 65.4733 82.5244 66.3164V70.5H81.3896V65.626C81.3896 65.029 81.262 64.5824 81.0068 64.2861C80.7516 63.9854 80.3529 63.835 79.8105 63.835C79.0996 63.835 78.5778 64.0492 78.2451 64.4775C77.917 64.9014 77.7529 65.5986 77.7529 66.5693V70.5H76.6182V63.0078H77.541L77.7256 64.0332H77.7803C77.9945 63.6686 78.2952 63.3838 78.6826 63.1787C79.0745 62.9736 79.512 62.8711 79.9951 62.8711C81.1663 62.8711 81.932 63.2949 82.292 64.1426H82.3467C82.57 63.7507 82.8936 63.4408 83.3174 63.2129C83.7412 62.985 84.2243 62.8711 84.7666 62.8711C85.6143 62.8711 86.2477 63.0898 86.667 63.5273C87.0908 63.9603 87.3027 64.6553 87.3027 65.6123V70.5H86.168ZM94.2549 70.5L94.0293 69.4336H93.9746C93.6009 69.903 93.2272 70.222 92.8535 70.3906C92.4844 70.5547 92.0218 70.6367 91.4658 70.6367C90.723 70.6367 90.1396 70.4453 89.7158 70.0625C89.2965 69.6797 89.0869 69.1351 89.0869 68.4287C89.0869 66.9157 90.2969 66.1227 92.7168 66.0498L93.9883 66.0088V65.5439C93.9883 64.9561 93.8607 64.5231 93.6055 64.2451C93.3548 63.9626 92.9515 63.8213 92.3955 63.8213C91.7712 63.8213 91.0648 64.0127 90.2764 64.3955L89.9277 63.5273C90.2969 63.3268 90.7002 63.1696 91.1377 63.0557C91.5798 62.9417 92.0218 62.8848 92.4639 62.8848C93.3571 62.8848 94.0179 63.083 94.4463 63.4795C94.8792 63.876 95.0957 64.5117 95.0957 65.3867V70.5H94.2549ZM91.6914 69.7002C92.3978 69.7002 92.9515 69.5065 93.3525 69.1191C93.7581 68.7318 93.9609 68.1895 93.9609 67.4922V66.8154L92.8262 66.8633C91.9238 66.8952 91.2721 67.0365 90.8711 67.2871C90.4746 67.5332 90.2764 67.9183 90.2764 68.4424C90.2764 68.8525 90.3994 69.1647 90.6455 69.3789C90.8962 69.5931 91.2448 69.7002 91.6914 69.7002ZM93.9404 60.5332C93.9404 60.9798 93.7992 61.3398 93.5166 61.6133C93.2386 61.8822 92.8672 62.0166 92.4023 62.0166C91.9421 62.0166 91.5752 61.8844 91.3018 61.6201C91.0283 61.3512 90.8916 60.9935 90.8916 60.5469C90.8916 60.1003 91.0283 59.7471 91.3018 59.4873C91.5798 59.223 91.9466 59.0908 92.4023 59.0908C92.8626 59.0908 93.234 59.2275 93.5166 59.501C93.7992 59.7699 93.9404 60.1139 93.9404 60.5332ZM93.2021 60.5469C93.2021 60.2917 93.127 60.0957 92.9766 59.959C92.8262 59.8177 92.6348 59.7471 92.4023 59.7471C92.1699 59.7471 91.9785 59.8177 91.8281 59.959C91.6777 60.0957 91.6025 60.2917 91.6025 60.5469C91.6025 60.8021 91.6709 61.0003 91.8076 61.1416C91.9443 61.2783 92.1426 61.3467 92.4023 61.3467C92.6393 61.3467 92.8307 61.2783 92.9766 61.1416C93.127 61.0003 93.2021 60.8021 93.2021 60.5469ZM98.5752 70.5H97.4404V59.8633H98.5752V70.5Z" fill="#1E43AA"/>
</svg>
